<svg width="21" height="17" fill="none" xmlns="http://www.w3.org/2000/svg"><path d="M7.162 11.307h10.183c.25 0 .47-.166.54-.407l2.245-7.86a.562.562 0 00-.54-.716H5.867L5.466.518a.562.562 0 00-.548-.44H1.549a.561.561 0 100 1.123h2.918l2.028 9.122a1.687 1.687 0 00-1.016 1.546c0 .928.756 1.684 1.685 1.684h10.18a.561.561 0 100-1.123H7.165a.562.562 0 01-.002-1.123zm11.684-7.86l-1.925 6.737H7.614L6.117 3.447h12.729zM6.602 15.237c0 .93.756 1.685 1.685 1.685.928 0 1.684-.756 1.684-1.685 0-.928-.756-1.684-1.684-1.684-.93 0-1.685.756-1.685 1.684zm1.685-.561a.562.562 0 11-.002 1.124.562.562 0 01.002-1.124zm6.25.561c0 .93.756 1.685 1.685 1.685.928 0 1.684-.756 1.684-1.685 0-.928-.756-1.684-1.684-1.684-.93 0-1.685.756-1.685 1.684zm1.685-.561a.562.562 0 11-.002 1.124.562.562 0 01.002-1.124z" fill="#000"/></svg>