<svg width="37" height="31" fill="none" xmlns="http://www.w3.org/2000/svg"><path fill-rule="evenodd" clip-rule="evenodd" d="M18.5 8.887a6.466 6.466 0 00-4.563 1.883 6.416 6.416 0 00-1.89 4.545c0 1.705.68 3.34 1.89 4.546a6.466 6.466 0 004.563 1.883 6.466 6.466 0 004.563-1.883 6.416 6.416 0 001.89-4.546c0-1.704-.68-3.34-1.89-4.545A6.466 6.466 0 0018.5 8.887zm-3.872 6.428a3.85 3.85 0 011.134-2.727 3.88 3.88 0 015.476 0 3.85 3.85 0 010 5.455 3.88 3.88 0 01-5.476 0 3.85 3.85 0 01-1.134-2.728z" fill="#716A54"/><path fill-rule="evenodd" clip-rule="evenodd" d="M18.5.315c-7.768 0-13.002 4.636-16.04 8.567l-.052.07c-.689.89-1.32 1.707-1.749 2.674C.2 12.663 0 13.793 0 15.316c0 1.522.2 2.651.66 3.689.43.966 1.06 1.786 1.748 2.674l.055.07c3.035 3.931 8.269 8.566 16.037 8.566 7.768 0 13.002-4.635 16.04-8.566l.052-.07c.689-.888 1.32-1.708 1.749-2.674.46-1.038.659-2.167.659-3.69 0-1.522-.2-2.652-.66-3.689-.43-.967-1.06-1.784-1.748-2.674l-.055-.07C31.502 4.95 26.268.315 18.5.315zM4.509 10.45C7.31 6.821 11.874 2.887 18.5 2.887c6.626 0 11.188 3.934 13.991 7.563.757.977 1.198 1.56 1.489 2.215.272.614.439 1.363.439 2.65 0 1.288-.167 2.037-.44 2.65-.29.656-.732 1.238-1.486 2.216-2.807 3.629-7.367 7.563-13.993 7.563S7.312 23.81 4.509 20.181c-.757-.978-1.198-1.56-1.489-2.215-.272-.614-.439-1.363-.439-2.65 0-1.288.167-2.037.44-2.65.29-.656.734-1.239 1.488-2.216z" fill="#716A54"/></svg>