<svg width="21" height="19" fill="none" xmlns="http://www.w3.org/2000/svg"><path fill-rule="evenodd" clip-rule="evenodd" d="M10.761 12.954a.858.858 0 011.238 0l3.757 3.864 3.756-3.864a.858.858 0 011.238 0 .918.918 0 010 1.273l-4.376 4.5a.858.858 0 01-1.237 0l-4.376-4.5a.918.918 0 010-1.273z" fill="#000"/><path fill-rule="evenodd" clip-rule="evenodd" d="M15.756 6.39c.483 0 .875.403.875.9v10.8c0 .497-.392.9-.875.9a.888.888 0 01-.876-.9V7.29c0-.497.392-.9.876-.9zM.004 9.09c0-.497.391-.9.875-.9h7.876c.483 0 .875.403.875.9s-.392.9-.875.9H.879a.888.888 0 01-.875-.9zm0-7.2c0-.498.391-.9.875-.9h14.877c.483 0 .875.402.875.9 0 .496-.392.9-.875.9H.879a.888.888 0 01-.875-.9zm0 14.401c0-.497.391-.9.875-.9h6.126c.483 0 .875.403.875.9s-.392.9-.875.9H.879a.888.888 0 01-.875-.9z" fill="#000"/></svg>